<svg xmlns="http://www.w3.org/2000/svg" xmlns:xlink="http://www.w3.org/1999/xlink" viewBox="0 0 20.31 20.9"><defs><style>.cls-1{opacity:0.34;}.cls-2{opacity:0.67;}.cls-3{fill:url(#radial-gradient);}</style><radialGradient id="radial-gradient" cx="10.15" cy="778.95" r="10.3" gradientTransform="translate(0 -768.5)" gradientUnits="userSpaceOnUse"><stop offset="0" stop-color="#876f7b"/><stop offset="0.05" stop-color="#1a161e"/><stop offset="0.19" stop-color="#160e13"/><stop offset="0.46" stop-color="#876f7b"/><stop offset="0.77" stop-color="#160e13"/></radialGradient></defs><g id="Layer_2" data-name="Layer 2"><g id="Layer_1-2" data-name="Layer 1"><g id="Layer_2-2" data-name="Layer 2"><g id="Layer_1-2-2" data-name="Layer 1-2"><g id="Layer_2-2-2" data-name="Layer 2-2" class="cls-1"><g id="svg2"><g id="layer1"><g id="g4317"><g id="path5" class="cls-2"><path class="cls-3" d="M20,8.11,18.84,9.26,15.59,6l1.16-1.17A.89.89,0,0,1,18,4.76l2.12,2.12A.9.9,0,0,1,20,8.11ZM15.05,6.57l3.24,3.19-7.73,7.73a.46.46,0,0,1-.27.17h0L6.29,19a.3.3,0,0,1-.3-.06.27.27,0,0,1-.06-.3l1.29-4h0a.65.65,0,0,1,.17-.27l1.36-1.48H3.86a.36.36,0,0,1-.36-.35.37.37,0,0,1,.36-.37H9.49ZM9.56,17.3l-2-2L7,17l.85.86Zm5.37-9.45a.31.31,0,0,0-.42,0l-6,6a.3.3,0,0,0,0,.41.33.33,0,0,0,.42,0l6-6A.32.32,0,0,0,14.93,7.85Zm-.37,11.48a.4.4,0,0,1-.39.39c-4.89-.09-7.92,0-12.6,0a.37.37,0,0,1-.39-.36V2.92a.37.37,0,0,1,.37-.39H3v.61a.39.39,0,1,0,.78,0V2.51H6.06v.62a.37.37,0,0,0,.37.39h0a.37.37,0,0,0,.39-.36V2.51H8.75v.62a.39.39,0,0,0,.78,0V2.51h2.22v.62a.39.39,0,1,0,.78,0h0V2.51h1.66a.39.39,0,0,1,.39.37v0h0V5.61l.42-.4.76-.76V2.92a1.57,1.57,0,0,0-1.57-1.57H12.51V.4a.39.39,0,1,0-.78,0h0v.94H9.58V.4A.39.39,0,0,0,9.21,0h0A.39.39,0,0,0,8.8.38h0v1h-2V.4a.37.37,0,0,0-.74,0h0v.94H3.81V.4A.41.41,0,0,0,3,.4v.94H1.57A1.57,1.57,0,0,0,0,2.92H0V19.33a1.56,1.56,0,0,0,1.56,1.56H14.17a1.55,1.55,0,0,0,1.58-1.53h0V13.63l-1.18,1.19v4.51ZM11.51,6H3.86a.37.37,0,0,0,0,.73h7.65a.37.37,0,0,0,0-.73Zm0,2.9H3.86a.36.36,0,0,0-.36.35.37.37,0,0,0,.36.37h7.65a.37.37,0,0,0,.36-.37A.36.36,0,0,0,11.51,8.91Z"/></g></g></g></g></g></g></g></g></g></svg>