<svg xmlns="http://www.w3.org/2000/svg" viewBox="0 0 770.39 497.52"><defs><style>.cls-1{fill:#fafafa;stroke:#000;stroke-miterlimit:10;}</style></defs><g id="Layer_2" data-name="Layer 2"><g id="Layer_1-2" data-name="Layer 1"><path class="cls-1" d="M148.37,12.58c-.48.74,4.4,6.9,9.1,11.57,7,6.87,19.53,22.32,21.92,27.07.39.77,29.7-1.19,70.77-4.79,31-2.69,31.25-2.75,31-3.73-.12-.47-.9-7.9-1.74-16.61s-1.62-15.89-1.76-15.92S272.3,9.55,266.08,9c-12.58-1.16-42.87-5-57.26-7.24C203.67,1,198.11.37,196.48.53,193.19.73,148.87,11.91,148.37,12.58Z"/><path class="cls-1" d="M110.24,22.58c-.2.3,3.19,5.85,7.56,12.39s14.71,22.53,23,35.71,15.26,24.24,15.47,24.56a1.47,1.47,0,0,0,1.45.44c4.09-1,74.51-11,90.51-12.73,29.43-3.34,35.66-3.29,101.86.37,61.37,3.34,84.37,5.29,122.67,10.13,61.3,7.9,154.78,25.31,177.44,33.13,2.63.88,8.5,3,13.11,4.6a69,69,0,0,0,8.87,2.89c.26-.06,15.86-11.7,34.7-25.93,31.82-24,50.91-38.09,59.16-43.59a31,31,0,0,0,3.84-2.81c.2-.29-8.83-1.36-20.1-2.36l-20.55-1.77L703.05,80.13l-26.18,22.58-9.32-2.29c-5.14-1.3-14.88-3.36-21.62-4.69-28.82-5.43-90-15-103.13-16.17-4.43-.37-8-1-7.95-1.34s1.77-4.69,3.77-9.55,5.67-14,8.07-20.16c3.75-9.6,4.21-11.25,3.18-11.37-.63-.09-8.48-.77-17.37-1.57l-16.19-1.44-5.22,8c-2.85,4.4-8.74,12.94-13,18.92-6.66,9.22-8.07,10.8-9.33,10.81-11.17-.29-150-10.5-151.19-11.13-.46-.26-21.48-44.1-21.87-45.66-.13-.52-16.38-2.43-20.19-2.47a9.13,9.13,0,0,0-3.36.47c-.15.22,1.85,10.36,4.47,22.5s4.73,22.19,4.7,22.32c-.33.58-29.14,2.41-62.48,4-26.61,1.28-41.21,2.22-49.72,3.17-3.45.37-21.47,2.89-22.22,3.08a18.55,18.55,0,0,1-1.82-3.54c-2.78-6.07-11.27-18.41-26.73-39.16L132,16.92l-8.82,1.9C114.19,20.74,111,21.67,110.24,22.58Z"/><path class="cls-1" d="M336.14,17.43c-1.16.17,7.34,20.06,10.9,25.76l2.76,4.35,24.15.93c57,2.26,56.76,2.27,85,6.55,10.21,1.58,19.9,2.91,21.46,3l2.8.22L490,47.71c6.4-10,8.14-13.71,7-15.2-.23-.38-3.36-.89-6.85-1.19s-14.59-1.46-24.65-2.65-33-3.45-51-5-39.3-3.55-47.17-4.29-18-1.54-22.48-1.72S336.39,17.37,336.14,17.43Z"/><path class="cls-1" d="M163.64,107.3c-1.8,1.13-2.11,1.76-3.11,7.66-1.76,10.35-6,23.76-23.17,73.74-4.93,14.27-11.75,34.36-15.13,44.67S108.36,273.67,99.1,300s-17.52,49.81-18.32,52.23-1.75,5.05-2.06,5.92l-.55,1.56L72.73,357c-7.26-3.66-15.19-6-21.81-6.31-4.87-.2-6.42,0-15.18,2.13s-10.22,2.67-13.84,4.8c-10.22,6.18-16.47,14.87-19.73,27.49-2.2,8.61-2.23,13,0,21.54,1.73,6.64,2.5,8.42,6.36,15.32,7.7,13.71,6.25,12.47,16.11,13.95C34.66,437.43,44.68,438,65.33,438l15.37,0,15.58-12.56c25.09-20.21,34.2-29.25,43.41-43.23,8.78-13.26,6-6.31,38.59-98.19C196.42,232.65,197,231,211.36,188c14.55-43.73,19.75-56.65,26.43-66.07,3.4-4.84,4.32-5.44,9-5.5,1.27,0,3.19,0,4.18-.11l1.86,0-2,7.09c-3.18,11.07-9.14,28.73-30.77,92-5.26,15.34-13.18,38.78-17.56,52.05-18.73,56.2-23.48,69.32-32.18,88.28s-15.35,30.33-22,38.09c-4.62,5.33-18.32,19.27-35.95,36.7L99.39,443.25l8.85-2c10-2.3,13.43-3.78,21.07-9.31,19.42-14,42.68-40.78,53.07-61A202.56,202.56,0,0,0,200.13,318c1.17-6.32,1.92-8.66,3.22-10.15,4.78-5.5,17-38.12,43.14-115.62,5.92-17.52,12.27-36,14.22-41.06,6.21-16.37,11.93-27.7,15.91-31.33,2.12-1.95,2.49-2,7.09-2.63a40.36,40.36,0,0,1,5.11-.41c1.15.57-31.5,102.25-47.94,149.41-8.69,24.92-30.55,84.92-35.22,96.72-10.44,26.22-12,28.58-38.72,56.95-14.48,15.36-20,21.77-20.42,24-.33,1.38-.1,1.75,1.29,2.51,1.56.9,1.88.82,6.25-.94,8.55-3.49,15.64-10.17,37.57-35.57,31.44-36.31,34.24-42.24,70.64-148.67,7.35-21.45,18.05-53.58,23.82-71.44,14-43.15,15.63-47.75,21.3-58.51,3.57-6.85,6.79-10.55,10-11.41,2.46-.61,10.89-.8,11.05-.17s-3.18,13.22-5.83,21.63c-5.52,17.55-24.26,71.55-37.82,109.37-4.71,13-13.34,37.58-19.32,54.63-12.63,36.18-18.06,50-22.77,57.95-1.86,3.24-5.63,9.83-8.28,14.74a157.53,157.53,0,0,1-9.81,15.61c-6.7,9.05-21.37,25.5-35,39.36-6.24,6.35-11.15,11.57-11,11.65s7.69-1.3,16.72-3.12l16.42-3.29,11.47,3.1c12.18,3.3,48.88,10.32,85.6,16.36C384.1,470,417.63,472.89,467.24,471.4c37.54-1.11,50.16-.88,68.39,1.22L547.4,474l8.8-2.2c4.85-1.2,13.55-3.56,19.41-5.26l10.59-3.08,2.14,2.18c6,5.95,19.11,17.93,24.12,22,9.39,7.63,14.44,10.18,18.21,9.24,1-.25-8.11-10.28-19.67-21.54-14.14-13.82-16.08-17.58-14.08-27.24,1-4.75,1.87-13.14,2.69-26.19,1.42-21.14,3.87-28.71,11.72-35.83a38.16,38.16,0,0,0,9.6-13.77c.72-1.9,2.5-8.44,4-14.53s3.87-14.49,5.3-18.66l2.6-7.54,4.9-3.13c5.42-3.44,9.49-5.37,22.49-10.83,4.85-2,8.83-3.74,8.86-3.87s-1.17-4.44-2.74-9.65c-4-13.28-7.21-21.14-26.44-64.5l-4.17-9.48,3.6-10.24c5.89-16.85,6.85-24.22,5.42-41.21a100.87,100.87,0,0,0-1.07-10.19c-.09-.1-1.89,6.87-3.91,15.37-3.94,16.66-9.35,37.57-11.26,43.58-1.15,3.67-1.15,3.67.89,10.24,1.09,3.6,4.25,12,7,18.55,8.29,19.83,9.47,23.23,12.63,35.91,2.56,10,3,12.77,2.78,15.73-.33,4.57-1.85,7.29-5,9.12-7.28,4.27-17.37,13.92-22.41,21.58a70.12,70.12,0,0,0-5.51,10.35l-2.3,5.49L595,363c-11.9,4.81-22,9-22.38,9.39-1,.73,4.78,2,8.35,1.86,2.05-.08,15.08,1.28,26.49,2.8,2.63.39,4.92,1,5,1.39s-.75,1.79-2,3.08c-1.7,1.78-3.44,2.82-7.87,4.61-3.47,1.35-6.24,2.84-7,3.72-2.35,2.61-4.05,7-4.66,12.11-4.94,39.67-7.73,50.45-13.83,54.43-3.31,2.24-16,5-25.05,5.38-21.91,1.1-40.57-4.09-76.42-21.1-25.24-12-47.47-27.16-85-58-20.5-16.85-26.1-20.55-29.75-19.64-4.72,1.17-.31,7.33,13.47,18.9,16,13.42,35.59,27.53,74.48,53.51,11.71,7.84,21.29,14.37,21.26,14.5s-30.94,1.88-31.25,1.71c-.08-.05-12.87-11.13-28.39-24.6-33.77-29.34-34.77-30.14-45-37.8-9.13-6.89-15.67-10.61-21.12-12.08-4-1.09-5.94-1-8.58.42-1.54.81-1.5.43,1-8.63,3.29-11.46,4.21-14,19.05-51.43C376.63,265,380.72,254.66,394,221.76c7.2-17.79,15.56-38.63,18.59-46.34,9.44-23.75,13.49-31.65,21.83-42.4l4.73-6.22,2.7,1.41c3.29,1.7,3.61,3,2.35,9.2-1.37,6.55-3.08,11.22-15.32,42.25-14.22,36-15.94,40.57-19.47,52.71-1.7,5.77-3.74,11.26-4.49,12.25-5.63,7.18-21.45,41.26-31.7,68.24-6.26,16.44-16.64,45.29-16.39,45.47s11-9.08,14-12.16a165.5,165.5,0,0,0,16.28-20.48c9.9-14.95,16.91-30.54,39.74-87.71,7.36-18.44,17.43-42.91,22.37-54.47s11.86-28,15.4-36.56l6.42-15.56,9.84.62c12.55.75,25.09,2.54,68.9,10,75.06,12.71,98.25,15.66,102.31,12.92,1.56-1,.53-3.26-2.49-5.46-5.15-3.76-24.38-11.45-44.61-17.85-18.14-5.74-42-9.4-107.33-16.41-71.54-7.69-91.17-9.5-115.9-10.59-56.48-2.46-182-3.28-201.5-1.23C173.06,104.09,166.3,105.66,163.64,107.3Zm14.82,11.5c2-.5,2.09-.46,2.16,1.43.07,1.09-3.2,11.56-7.24,23.21-7.84,22.68-14,41.49-23.38,71.32-3.25,10.28-8.83,26.5-12.4,36-7.92,21-17.28,47.54-22.72,64.34a160.57,160.57,0,0,1-5.82,15c-5.31,11.41-14,27.41-14.3,26.26-.55-2.2,0-8.61,1-13,.57-2.54,4.19-12.42,8.08-22,8.4-21,8.59-21.58,19.94-57,5-15.45,11.07-33.58,13.6-40.3s10.45-29.11,17.52-49.81c14.06-41.15,15.85-46,19.22-51.29C176,120,176.83,119.21,178.46,118.8Zm29.94-4a9.73,9.73,0,0,1,4.48,1.09c2.76,2.21,2.37,4.95-2.67,19.86-1.73,5.1-8.76,26.48-15.54,47.54s-14.95,45.36-18,54.06-9.31,27-13.79,40.64c-18.41,55.88-25.91,74-37.36,90.81-14,20.39-34.17,39.57-52.09,49.45A157.67,157.67,0,0,1,58,425l-10.43,4L44.67,428c-15.86-6-23.4-12.37-28.7-24.27s-3.62-19.33,6-27.33c7.14-6,11.55-8.35,18.47-10.08,5.1-1.27,6.54-1.38,9.87-.86a15.88,15.88,0,0,1,6.2,2.33c3.36,2.48,7.41,9.34,9.53,16.26s2.18,9.79.17,14.35c-5.13,11.3-22.79,17.67-32.49,11.72-3.24-2-4.86-4.5-6.08-9.37-1.6-6.42,1.21-9.09,12.66-11.95,5.66-1.41,6-1.44,7.33-.35,3.06,2.62-.25,5.17-6.43,5.05a26,26,0,0,0-5.14.54c-4,1-5,2.84-3.44,7.38,1,2.89,1.48,3.51,3.52,4.47,2.73,1.29,7,1.52,14.41.71,10.79-1.21,11.88-3.26,10.76-20.88-.65-9.86-1.32-12.28-3.63-13.49-2.89-1.43-12-1.42-19.49.06-6,1.19-6.73,1.44-9.48,3.54-8.54,6.49-11.92,19.45-7.74,29.79a27.79,27.79,0,0,0,8.93,10.87c5.84,3.89,20,3.94,35.45.14,7.94-1.92,9.17-2.35,12-4.41L80.48,410l4.14-12.35c4-11.94,4.2-12.36,7.21-15,6.74-5.92,20.33-21.92,26.06-30.54,10.33-15.68,16.72-32.4,38.62-100.53C177.23,187,195.86,131.5,199.84,122.26a31.69,31.69,0,0,1,3.22-5.84C204.66,114.54,204.29,114.63,208.4,114.78Zm145.82,7.86c1.8,0,6.84-.17,11.08-.3s7.87-.06,7.95.23c.11.46-6.55,19-11.95,33.55-1.66,4.34-7.33,18.31-12.66,30.95s-13.35,33-17.9,45.36c-7.22,19.52-31.35,81.13-39.87,101.89-4.28,10.47-8,18.48-15.09,32.23-8.3,16.28-12.33,22.88-25.74,42.28l-11.39,16.49-6,2.61c-6.39,2.76-12.38,4.5-15.51,4.54-1.73,0-1.14-.82,11.48-16.94,15.21-19.41,26.07-35.34,30.64-45.16,6.73-14.53,16-39.78,32.57-88.87,12-35.65,14.35-42.14,21.63-59.82,6.48-15.82,9.1-23,22-61.14,5.38-15.92,10.5-30.78,11.37-33.16C348.51,122.77,348.68,122.67,354.22,122.64Zm55.86,1.88c1.65,1.49-1.3,9.79-17.54,49.15C384,194.56,375,217,372.69,223.51c-6.55,18.24-10.64,27.56-15.29,35.18-3.07,5.07-5.65,11.37-19.68,48.88-14.91,39.88-15.59,41.71-18.77,48.28-4.91,10.33-8.81,16.9-18.46,31-5.23,7.7-9.48,14.23-9.4,14.58s1.31.17,3.39-.6c4.95-1.85,8.23-1.31,12.27,2.05,8.09,6.71,39.66,38.45,39.06,39.28-.13.27-6.22,0-13.47-.71l-13.24-1.12L307,427.1c-17-18.39-20.57-20.88-29.26-20.07-2.29.2-4.59.35-5,.32s5.13-9.15,12.42-20.38l13.29-20.41,16.68-41.36c9.16-22.77,19.65-49.31,23.31-59s11.27-28.77,16.9-42.35c13.73-33.13,24.73-60.53,30.35-75.53,4.77-12.75,8-19.22,10.76-21.44S408.45,123.08,410.08,124.52ZM335.69,386.24c2.42,1.68,7.5,5.45,11.26,8.45s10.31,8.13,14.49,11.52a331.9,331.9,0,0,1,25.62,23.13c6.11,6,18.52,18.57,18.57,18.74s-6.3.22-19.07-.1c-10.62-.25-8.95.57-16.29-8a159.7,159.7,0,0,0-12.21-11.71c-18.75-16.48-37.62-35.09-38.28-37.75-.38-1.51.34-2.12,4.34-4C331.89,382.82,330.7,382.87,335.69,386.24Zm-69.36,27.08c1-.56,2.15.32,8,6.12,6.32,6.3,11.9,13.39,11.27,14.35-.29.44-33-6.47-37.39-7.9-2.47-.8-4.22-3-2.71-3.38.31-.08,4.84-2,10.13-4.38S265.68,413.66,266.33,413.32Z"/><path class="cls-1" d="M566,40.63c-2,.5-2.57,1.2-6.4,7.81-5.33,9.2-6.61,12.35-6.05,14.61L554,64.9l53.48,10.28c29.42,5.71,56.09,11.11,59.33,12l5.89,1.66,4.15-1.59c5.24-2,10.19-5.24,17.53-11.44,10.76-9.08,19.22-16.72,19.07-17.3-.32-1.27-4.37-2.79-9.79-3.65-6.76-1.08-62.69-8.35-75.06-9.7-13.59-1.47-27.13-2.7-44.41-3.93C575.39,40.62,567.18,40.39,566,40.63Z"/><path class="cls-1" d="M534.7,177a90.64,90.64,0,0,0-11.15,5.67c-6.4,3.81-6.4,3.81-3.77,3.64a88.76,88.76,0,0,0,8.92-1.73,248.61,248.61,0,0,1,29.43-5.24c6-.51,9.21-.33,21.38,1.06,9.91,1.16,13.56,1,20.73-.74,6.55-1.63,18.44-5.64,20.22-6.82,1.54-1.06,1.27-1.06-5.37-.88-23.06.77-34.84.69-46.47-.16a80.84,80.84,0,0,0-12.09-.24C551.18,172.12,540.12,174.94,534.7,177Z"/><path class="cls-1" d="M543.64,192.26c-20.73,6.9-22.85,7.79-25.09,10.07-2.06,2.18-3.09,4.46-2.3,4.95.29.11,3.92-1.41,8.08-3.5,7.27-3.53,8.2-3.82,22.35-7.35,15.93-3.91,24.08-5,37.12-5,3.29,0,6.11-.17,6.25-.39s-.3-1-1.09-1.7c-2.25-2.33-13.65-4.1-21.36-3.41C562.71,186.47,555.24,188.39,543.64,192.26Z"/><path class="cls-1" d="M544.24,205.4c-7,1.68-28.53,12.59-30.44,15.4-.9,1.46-.9,1.46,3.78.66,2.62-.47,12.17-2.36,21.18-4.3,25.27-5.32,30.64-5.18,36.15.83,2.39,2.6,7.74,13.07,7.17,14-.14.23-4.49.2-9.63-.05-13.88-.72-29.36-1.17-29.62-.86-.32.57,15.33,6,20.4,7,3.25.73,5.66,1.54,6.1,2.23s.63,1.2.52,1.29c-.5.67-8.76,4.52-18,8.35-10.29,4.29-10.42,4.32-6.62,3.74,7.73-1.13,23.08-5.26,36-9.66,7.27-2.48,14.43-4.82,15.88-5.19a6.67,6.67,0,0,0,4.06-2.48l1.41-1.83-2.71-.68c-1.43-.38-2.76-1.16-2.89-1.68s.89-2.62,2.26-4.62c2.63-3.91,4-8,5-15.71.56-3.89,1.31-5.74,3.88-9.88,5.41-8.61,5.68-8.31-5.85-5.5a263.53,263.53,0,0,1-45.17,7.21A113.08,113.08,0,0,0,544.24,205.4Z"/><path class="cls-1" d="M506.87,316.81c-1.6.83-3.23,2.59-5.15,5.59L499,326.65l1,3.94a64.67,64.67,0,0,0,5.71,14.32c3.8,6.13,18.33,9.45,32.82,7.56,12.8-1.71,55-11.19,61.26-13.73a5,5,0,0,0,2.59-2.19c.35-1-.45-1.55-4.62-3.27a68.58,68.58,0,0,0-6.76-2.44c-1.76-.36-8.65.93-40,7.5-20.32,4.27-28,5.19-33.87,4.08-6.39-1.24-7.7-2.2-8.6-6.34s-.92-11,0-11.81,5.81-1.63,12.39-2c4.34-.29,7.14.49,7.54,2.11.32,1.28-2,3.46-5.12,4.91-3.42,1.59-4.55,3.22-2.66,3.8.57.16,3.82-.46,7.27-1.38l6.25-1.75-1-3.37c-2.09-7-8.89-12.05-16.57-12.29A25,25,0,0,0,506.87,316.81Z"/><path class="cls-1" d="M590,301.43c-2.5,3.38-2,8.19,1.25,13.89,2.17,3.58,3.34,4.27,8.13,4.74,6.52.65,12.38.05,20.87-2.07,7.8-1.95,19.72-6.15,21-7.32,1-.92-.73-1.85-4.59-2.6-4.28-.84-12.13.13-36.13,4.64-4.33.83-6.56,1-6.67.55a23.47,23.47,0,0,1,0-3.88c.31-4.13,1.6-5.38,8.4-8.12a39.67,39.67,0,0,0,5.94-2.71c.92-.85-1.15-2.48-3.57-2.8C600,295.08,592.52,298,590,301.43Z"/></g></g></svg>