<svg xmlns="http://www.w3.org/2000/svg" viewBox="0 0 1375.49 596.78"><defs><style>.cls-1{fill:#fafafa;stroke:#000;stroke-miterlimit:10;}.cls-2{font-size:158.18px;fill:#ebeaea;font-family:ArialMT, Arial;}</style></defs><g id="Layer_2" data-name="Layer 2"><g id="Layer_1-2" data-name="Layer 1"><path class="cls-1" d="M529.71,10c-.34.57,3.08,5.4,6.39,9.06,4.91,5.38,13.73,17.48,15.4,21.21.28.6,20.88-.94,49.74-3.75,21.79-2.11,22-2.16,21.79-2.93-.08-.36-.63-6.18-1.22-13S620.67,8.1,620.57,8.08s-3.77-.49-8.14-.92c-8.84-.91-30.13-3.91-40.24-5.68a51.2,51.2,0,0,0-8.67-1C561.21.68,530.06,9.44,529.71,10Z"/><path class="cls-1" d="M502.91,17.8c-.14.23,2.24,4.58,5.31,9.7s10.34,17.66,16.17,28,10.73,19,10.88,19.23a1,1,0,0,0,1,.35c2.88-.8,52.37-8.58,63.61-10,20.69-2.62,25.06-2.58,71.58.29,43.13,2.61,59.3,4.14,86.21,7.93,43.09,6.19,108.78,19.83,124.71,26,1.84.69,6,2.34,9.21,3.61a44.9,44.9,0,0,0,6.24,2.26C898,105.1,909,96,922.22,84.83,944.58,66,958,55,963.79,50.68a24.27,24.27,0,0,0,2.71-2.2c.13-.23-6.21-1.07-14.13-1.85l-14.45-1.38-18.4,17.64-18.4,17.69-6.55-1.79c-3.61-1-10.45-2.64-15.19-3.68-20.25-4.25-63.26-11.76-72.48-12.67-3.11-.29-5.62-.8-5.59-1s1.25-3.67,2.65-7.48,4-10.94,5.67-15.79c2.64-7.53,3-8.82,2.24-8.91-.44-.07-6-.61-12.21-1.24l-11.38-1.12-3.67,6.27c-2,3.45-6.13,10.14-9.12,14.83-4.68,7.22-5.67,8.46-6.56,8.47-7.85-.23-105.44-8.23-106.25-8.73-.33-.2-15.1-34.54-15.37-35.77-.09-.4-11.51-1.9-14.19-1.93a5.67,5.67,0,0,0-2.36.37c-.11.17,1.3,8.12,3.14,17.63s3.33,17.38,3.3,17.48c-.23.45-20.47,1.89-43.91,3.15-18.7,1-29,1.74-34.94,2.49-2.43.28-15.09,2.26-15.62,2.41a16.64,16.64,0,0,1-1.27-2.78c-2-4.75-7.93-14.42-18.79-30.67l-4.51-6.7L512,14.85C505.68,16.36,503.4,17.09,502.91,17.8Z"/><path class="cls-1" d="M661.67,13.76c-.82.13,5.15,15.72,7.66,20.18l1.93,3.42,17,.72c40.07,1.78,39.89,1.78,59.7,5.14,7.18,1.23,14,2.28,15.09,2.36l2,.18,4.78-8.27c4.5-7.8,5.72-10.75,4.89-11.91-.16-.3-2.36-.7-4.81-.93s-10.26-1.15-17.32-2.08-23.19-2.71-35.87-3.95S689,15.84,683.51,15.26s-12.67-1.2-15.8-1.35S661.84,13.71,661.67,13.76Z"/><path class="cls-1" d="M540.43,84.18c-1.26.88-1.47,1.37-2.18,6C537,98.28,534.06,108.79,522,148c-3.47,11.18-8.26,26.92-10.63,35s-9.75,31.57-16.26,52.22-12.31,39-12.88,40.92-1.22,4-1.45,4.64l-.38,1.22-3.82-2.17a37,37,0,0,0-15.33-4.94c-3.42-.16-4.51,0-10.67,1.66s-7.18,2.1-9.72,3.77c-7.18,4.84-11.58,11.65-13.87,21.54-1.55,6.74-1.57,10.21,0,16.87,1.21,5.2,1.75,6.59,4.47,12,5.4,10.73,4.39,9.76,11.31,10.92,7.08,1.21,14.12,1.62,28.64,1.63h10.8l10.94-9.84c17.64-15.84,24-22.92,30.51-33.87,6.18-10.39,4.25-4.94,27.13-76.93,12.75-40.21,13.12-41.47,23.24-75.17,10.23-34.26,13.88-44.38,18.57-51.76,2.4-3.79,3-4.26,6.32-4.31.89,0,2.24,0,2.94-.09l1.31,0-1.44,5.56c-2.24,8.67-6.42,22.5-21.62,72.12-3.7,12-9.27,30.38-12.35,40.77-13.16,44-16.49,54.31-22.61,69.17s-10.79,23.77-15.49,29.84c-3.25,4.18-12.87,15.1-25.27,28.76l-9.05,9.93,6.22-1.58c7-1.81,9.44-3,14.81-7.3,13.65-11,30-31.95,37.3-47.81a171.09,171.09,0,0,0,12.47-41.43c.82-4.95,1.35-6.79,2.26-7.95,3.36-4.31,11.92-29.87,30.32-90.59,4.16-13.73,8.62-28.22,10-32.17C613,105.73,617,96.85,619.83,94c1.49-1.53,1.76-1.6,5-2.07a28.22,28.22,0,0,1,3.59-.32c.8.45-22.14,80.12-33.69,117.06-6.11,19.52-21.47,66.53-24.75,75.78-7.34,20.54-8.43,22.39-27.22,44.62-10.17,12-14,17.05-14.35,18.78-.23,1.08-.07,1.37.91,2s1.32.65,4.39-.73c6-2.74,11-8,26.41-27.87,22.09-28.45,24.06-33.09,49.64-116.48,5.17-16.81,12.69-42,16.74-56,9.82-33.81,11-37.41,15-45.84,2.51-5.37,4.77-8.26,7-8.94,1.72-.47,7.65-.63,7.76-.13s-2.24,10.36-4.1,16.94c-3.87,13.75-17,56.06-26.57,85.69-3.32,10.17-9.38,29.45-13.58,42.8-8.88,28.35-12.7,39.19-16,45.41-1.32,2.53-4,7.7-5.83,11.54a126,126,0,0,1-6.89,12.23c-4.71,7.09-15,20-24.61,30.84-4.38,5-7.84,9.06-7.73,9.13s5.41-1,11.76-2.45l11.54-2.58,8,2.44c8.57,2.58,34.36,8.08,60.16,12.81,52.93,9.67,76.49,11.94,111.36,10.78,26.38-.88,35.25-.69,48.06.95l8.27,1.07,6.19-1.72c3.41-.94,9.52-2.79,13.64-4.13l7.44-2.4,1.51,1.7c4.19,4.67,13.42,14,17,17.21,6.59,6,10.14,8,12.79,7.24.71-.2-5.69-8.05-13.82-16.88-9.93-10.82-11.3-13.77-9.89-21.34.72-3.72,1.31-10.29,1.89-20.52,1-16.57,2.72-22.49,8.23-28.07a30.21,30.21,0,0,0,6.75-10.79c.51-1.49,1.76-6.61,2.8-11.38s2.72-11.36,3.73-14.62l1.83-5.91,3.44-2.45c3.81-2.7,6.66-4.21,15.8-8.49,3.41-1.57,6.21-2.93,6.23-3s-.83-3.48-1.93-7.56c-2.79-10.4-5.06-16.56-18.58-50.53l-2.93-7.43,2.53-8c4.14-13.19,4.82-19,3.82-32.28-.32-4.35-.65-7.92-.76-8s-1.33,5.38-2.75,12c-2.76,13-6.57,29.43-7.91,34.14-.81,2.88-.81,2.88.62,8,.77,2.82,3,9.39,4.9,14.54,5.82,15.54,6.65,18.2,8.87,28.13,1.8,7.84,2.14,10,2,12.32-.23,3.59-1.31,5.71-3.52,7.15-5.12,3.35-12.21,10.91-15.76,16.91a56.49,56.49,0,0,0-3.86,8.11l-1.62,4.3-15.16,6.77c-8.36,3.77-15.43,7-15.73,7.36-.67.57,3.36,1.57,5.87,1.45,1.44-.06,10.6,1,18.61,2.2,1.86.3,3.46.77,3.53,1.09a5.19,5.19,0,0,1-1.38,2.41c-1.19,1.39-2.42,2.21-5.53,3.61a16.49,16.49,0,0,0-4.94,2.91c-1.66,2.05-2.85,5.52-3.28,9.49-3.47,31.08-5.43,39.53-9.72,42.64-2.33,1.76-11.24,3.9-17.6,4.22-15.4.86-28.52-3.2-53.71-16.53C741.94,336,726.32,324.07,700,299.88c-14.41-13.19-18.35-16.1-20.91-15.39-3.32.93-.22,5.75,9.46,14.82,11.23,10.51,25,21.57,52.35,41.92,8.23,6.14,15,11.26,14.94,11.36s-21.75,1.47-22,1.34-9-8.72-20-19.27c-23.74-23-24.44-23.62-31.61-29.62-6.42-5.4-11-8.31-14.84-9.46-2.82-.86-4.17-.82-6,.32-1.08.64-1,.34.74-6.76,2.31-9,3-10.94,13.39-40.29,14.57-41.1,17.45-49.23,26.8-75,5.06-13.94,10.94-30.27,13.06-36.3,6.64-18.62,9.48-24.8,15.35-33.23l3.32-4.87,1.89,1.11c2.32,1.33,2.54,2.33,1.66,7.2-1,5.14-2.17,8.79-10.77,33.11-10,28.17-11.2,31.78-13.68,41.29-1.19,4.52-2.63,8.82-3.16,9.6-3.95,5.63-15.07,32.33-22.28,53.46-4.39,12.88-11.69,35.48-11.52,35.63s7.76-7.12,9.85-9.53a129.73,129.73,0,0,0,11.44-16c7-11.71,11.88-23.92,27.92-68.71,5.18-14.45,12.26-33.62,15.72-42.68S749.49,122,752,115.24l4.51-12.19,6.92.49c8.81.58,17.63,2,48.42,7.79,52.75,10,69,12.27,71.9,10.12,1.09-.78.37-2.55-1.75-4.28-3.62-2.94-17.13-9-31.35-14-12.75-4.5-29.5-7.36-75.43-12.86-50.28-6-64.08-7.44-81.45-8.29-39.69-1.93-127.88-2.57-141.61-1C547.06,81.66,542.3,82.89,540.43,84.18Zm10.42,9c1.42-.39,1.47-.36,1.52,1.12,0,.86-2.25,9.06-5.09,18.18-5.51,17.77-9.82,32.51-16.43,55.89-2.28,8-6.2,20.76-8.72,28.2-5.56,16.48-12.14,37.25-16,50.4-1,3.47-2.84,8.74-4.09,11.74-3.73,8.94-9.85,21.48-10.05,20.58-.39-1.73,0-6.75.72-10.23.4-2,2.94-9.73,5.68-17.23,5.9-16.44,6-16.91,14-44.66,3.5-12.1,7.79-26.31,9.57-31.57s7.34-22.81,12.31-39c9.88-32.24,11.14-36.06,13.5-40.18C549.1,94.15,549.7,93.5,550.85,93.18Zm21-3.15a6.41,6.41,0,0,1,3.15.86c1.94,1.73,1.67,3.88-1.87,15.56-1.22,4-6.16,20.74-10.93,37.24S551.74,179.23,549.6,186s-6.54,21.15-9.69,31.85C527,261.67,521.7,275.9,513.65,289c-9.81,16-24,31-36.6,38.75a108.22,108.22,0,0,1-10.88,5.34l-7.32,3.14-2-.84c-11.15-4.7-16.45-9.69-20.17-19s-2.55-15.15,4.22-21.41c5-4.67,8.12-6.55,13-7.9,3.58-1,4.6-1.08,6.94-.68a10.48,10.48,0,0,1,4.35,1.83c2.36,1.95,5.21,7.32,6.7,12.74s1.53,7.67.12,11.24c-3.6,8.86-16,13.85-22.83,9.19-2.28-1.58-3.42-3.53-4.27-7.34-1.13-5,.85-7.13,8.89-9.37,4-1.1,4.26-1.13,5.15-.27,2.15,2.05-.17,4.05-4.51,3.95a16.56,16.56,0,0,0-3.62.43c-2.84.74-3.49,2.22-2.41,5.78.69,2.26,1,2.75,2.47,3.5,1.92,1,4.91,1.19,10.13.56,7.58-1,8.35-2.56,7.56-16.36-.46-7.73-.93-9.62-2.55-10.57-2-1.12-8.47-1.12-13.7,0-4.21.93-4.73,1.12-6.66,2.77-6,5.09-8.38,15.24-5.44,23.34a21.5,21.5,0,0,0,6.27,8.52c4.11,3,14,3.08,24.91.11,5.59-1.51,6.45-1.84,8.44-3.46l2.19-1.72,2.91-9.67c2.79-9.35,3-9.69,5.07-11.77,4.74-4.64,14.29-17.17,18.32-23.93,7.25-12.28,11.74-25.38,27.13-78.76C550,146.62,563.08,103.13,565.88,95.9a25,25,0,0,1,2.26-4.58C569.27,89.85,569,89.92,571.89,90Zm102.48,6.16c1.27,0,4.81-.13,7.79-.24s5.53,0,5.58.19-4.6,14.91-8.39,26.28c-1.17,3.41-5.16,14.34-8.9,24.25s-9.38,25.88-12.58,35.54c-5.08,15.29-22,63.56-28,79.82-3,8.21-5.64,14.49-10.6,25.26-5.84,12.75-8.67,17.93-18.09,33.12l-8,12.92-4.24,2.05c-4.49,2.16-8.69,3.52-10.89,3.56-1.22,0-.81-.65,8.06-13.28,10.69-15.21,18.32-27.69,21.53-35.38,4.74-11.38,11.25-31.17,22.89-69.62,8.45-27.94,10.09-33,15.21-46.87,4.55-12.4,6.39-18,15.44-47.9,3.78-12.47,7.38-24.12,8-26C670.36,96.3,670.48,96.21,674.37,96.19Zm39.26,1.47c1.15,1.18-.91,7.68-12.33,38.51-6,16.37-12.31,34-13.95,39.05-4.6,14.29-7.47,21.59-10.74,27.56-2.16,4-4,8.91-13.84,38.3-10.48,31.24-10.95,32.68-13.18,37.83-3.45,8.09-6.2,13.23-13,24.27-3.68,6-6.66,11.16-6.6,11.43s.92.13,2.38-.47c3.48-1.45,5.78-1,8.62,1.6,5.69,5.26,27.87,30.13,27.45,30.77-.09.22-4.37,0-9.46-.55l-9.31-.88-8.52-10.35c-11.95-14.41-14.46-16.36-20.56-15.73-1.61.16-3.23.27-3.51.26s3.61-7.17,8.73-16l9.34-16,11.72-32.41c6.44-17.84,13.81-38.63,16.38-46.23s7.92-22.54,11.88-33.18c9.65-25.95,17.38-47.43,21.33-59.17,3.35-10,5.65-15.06,7.56-16.8S712.49,96.54,713.63,97.66ZM661.35,302.72c1.7,1.31,5.27,4.26,7.91,6.62s7.25,6.36,10.19,9a243.17,243.17,0,0,1,18,18.12c4.3,4.73,13,14.55,13,14.68s-4.42.17-13.4-.08c-7.46-.19-6.29.45-11.45-6.26a116.82,116.82,0,0,0-8.58-9.18c-13.17-12.91-26.44-27.49-26.9-29.57-.27-1.18.24-1.66,3.05-3.17C658.68,300,657.84,300.08,661.35,302.72ZM612.6,323.93c.7-.44,1.51.25,5.63,4.79,4.44,4.94,8.36,10.5,7.91,11.25-.2.34-23.2-5.07-26.27-6.19-1.73-.63-3-2.36-1.91-2.65.23-.06,3.41-1.58,7.13-3.43S612.15,324.2,612.6,323.93Z"/><path class="cls-1" d="M823.19,31.94c-1.42.39-1.81.94-4.51,6.12-3.74,7.21-4.64,9.67-4.25,11.44l.33,1.46,37.58,8c20.68,4.47,39.42,8.7,41.7,9.42l4.14,1.31,2.91-1.25c3.69-1.6,7.16-4.11,12.32-9C921,52.41,926.92,46.43,926.82,46c-.23-1-3.07-2.18-6.89-2.85-4.74-.85-44-6.55-52.74-7.6-9.56-1.16-19.07-2.12-31.22-3.09A101.36,101.36,0,0,0,823.19,31.94Z"/><path class="cls-1" d="M801.21,138.8a61.53,61.53,0,0,0-7.84,4.45c-4.5,3-4.5,3-2.65,2.85a56.27,56.27,0,0,0,6.27-1.36,159.26,159.26,0,0,1,20.69-4.11c4.18-.39,6.47-.25,15,.84,7,.91,9.53.82,14.57-.58,4.6-1.28,13-4.42,14.21-5.35,1.08-.83.89-.82-3.77-.68-16.21.6-24.49.54-32.67-.13a51.11,51.11,0,0,0-8.49-.19A73.5,73.5,0,0,0,801.21,138.8Z"/><path class="cls-1" d="M807.49,150.74c-14.57,5.4-16.06,6.1-17.63,7.89s-2.17,3.49-1.62,3.87a30.21,30.21,0,0,0,5.68-2.73c5.11-2.77,5.76-3,15.71-5.77,11.2-3.06,16.92-3.93,26.09-3.88a15.51,15.51,0,0,0,4.39-.3c.1-.18-.22-.76-.77-1.33-1.58-1.83-9.59-3.21-15-2.67C820.89,146.2,815.64,147.7,807.49,150.74Z"/><path class="cls-1" d="M807.91,161c-4.91,1.32-20,9.86-21.39,12.07-.63,1.14-.63,1.14,2.65.51,1.85-.37,8.56-1.85,14.89-3.36,17.76-4.17,21.54-4.06,25.41.64,1.67,2,5.44,10.25,5,11a37.9,37.9,0,0,1-6.78,0c-9.75-.56-20.63-.91-20.81-.67-.23.45,10.78,4.71,14.34,5.51,2.28.57,4,1.2,4.28,1.74s.45.94.37,1c-.35.53-6.16,3.54-12.62,6.55-7.24,3.35-7.32,3.38-4.65,2.93,5.43-.89,16.21-4.13,25.3-7.57,5.11-2,10.15-3.78,11.16-4.06a4.74,4.74,0,0,0,2.86-2l1-1.44-1.9-.53c-1-.3-1.94-.9-2-1.31s.62-2,1.58-3.62c1.85-3.07,2.78-6.27,3.54-12.31a17.91,17.91,0,0,1,2.73-7.74c3.8-6.75,4-6.51-4.11-4.31A168,168,0,0,1,817,159.71,73.26,73.26,0,0,0,807.91,161Z"/><path class="cls-1" d="M781.65,248.32c-1.12.65-2.27,2-3.62,4.38L776.1,256l.69,3.08a53.43,53.43,0,0,0,4,11.22c2.67,4.8,12.88,7.41,23.07,5.93,9-1.35,38.65-8.77,43-10.76a3.64,3.64,0,0,0,1.82-1.72c.25-.79-.32-1.21-3.25-2.56a43.68,43.68,0,0,0-4.75-1.91c-1.23-.28-6.08.73-28.08,5.88-14.28,3.34-19.66,4.06-23.8,3.19-4.49-1-5.41-1.72-6-5s-.65-8.59,0-9.25,4.08-1.28,8.7-1.6c3.05-.22,5,.39,5.3,1.66.23,1-1.41,2.7-3.6,3.84-2.4,1.25-3.19,2.53-1.87,3a19.88,19.88,0,0,0,5.11-1.08l4.39-1.37-.73-2.64a12.74,12.74,0,0,0-11.64-9.63A16.13,16.13,0,0,0,781.65,248.32Z"/><path class="cls-1" d="M840.1,236.26c-1.76,2.66-1.43,6.42.88,10.89,1.52,2.8,2.35,3.35,5.72,3.71,4.57.51,8.69,0,14.66-1.62,5.48-1.52,13.86-4.81,14.73-5.73.69-.72-.51-1.45-3.23-2-3-.66-8.52.1-25.39,3.63-3,.66-4.61.8-4.69.44a22.2,22.2,0,0,1,0-3c.21-3.24,1.12-4.22,5.9-6.36a26.14,26.14,0,0,0,4.17-2.13c.65-.66-.81-1.94-2.51-2.19C847.06,231.29,841.84,233.56,840.1,236.26Z"/><text class="cls-2" transform="translate(0 545.41) scale(1.8 1)">Joe Schlitz</text></g></g></svg>