<svg xmlns="http://www.w3.org/2000/svg" xmlns:xlink="http://www.w3.org/1999/xlink" viewBox="0 0 82.63 87.47"><defs><style>.cls-1{opacity:0.75;fill:url(#linear-gradient);}</style><linearGradient id="linear-gradient" x1="72.69" y1="13.63" x2="15.27" y2="71.24" gradientUnits="userSpaceOnUse"><stop offset="0.17" stop-color="#1d1335"/><stop offset="0.37" stop-color="#6d81f8"/><stop offset="0.45" stop-color="#9761db"/><stop offset="0.59"/><stop offset="0.88" stop-color="#3f347b"/><stop offset="1" stop-color="#5363bf"/></linearGradient></defs><g id="Layer_2" data-name="Layer 2"><g id="Layer_1-2" data-name="Layer 1"><path class="cls-1" d="M70.52,19a1.73,1.73,0,1,1-1.73,1.73A1.74,1.74,0,0,1,70.52,19ZM42.88,0a8.05,8.05,0,1,1-8.05,8.05A8,8,0,0,1,42.88,0ZM17.14,12.6a6.32,6.32,0,1,1-6.32,6.32A6.33,6.33,0,0,1,17.14,12.6ZM5.61,40A5.61,5.61,0,1,1,0,45.63,5.61,5.61,0,0,1,5.61,40ZM17.14,68.24a5,5,0,1,1-5,5A5,5,0,0,1,17.14,68.24Zm25.74,10a4.61,4.61,0,1,1-4.61,4.61A4.61,4.61,0,0,1,42.88,78.25Zm26.42-10a3.39,3.39,0,1,1-3.39,3.39A3.4,3.4,0,0,1,69.3,68.24ZM79.88,42.91a2.75,2.75,0,1,1-2.74,2.74A2.75,2.75,0,0,1,79.88,42.91Z"/></g></g></svg>